<?xml version="1.0" encoding="UTF-8"?>
<!DOCTYPE svg PUBLIC "-//W3C//DTD SVG 1.1//EN" "http://www.w3.org/Graphics/SVG/1.1/DTD/svg11.dtd">
<!-- Creator: CorelDRAW 2021 (64-Bit) -->
<svg xmlns="http://www.w3.org/2000/svg" xml:space="preserve" width="210mm" height="297mm" version="1.1" style="shape-rendering:geometricPrecision; text-rendering:geometricPrecision; image-rendering:optimizeQuality; fill-rule:evenodd; clip-rule:evenodd"
viewBox="0 0 21000 29700"
 xmlns:xlink="http://www.w3.org/1999/xlink"
 xmlns:xodm="http://www.corel.com/coreldraw/odm/2003">
 <defs>
  <style type="text/css">
   <![CDATA[
    .fil0 {fill:none}
    .fil2 {fill:#0631FA}
    .fil1 {fill:white}
   ]]>
  </style>
 </defs>
 <g id="Layer_x0020_1">
  <metadata id="CorelCorpID_0Corel-Layer"/>
  <circle class="fil0" cx="-163889.98" cy="-6376.16" r="759.39"/>
  <path class="fil0" d="M-163889.98 -7341.17c532.96,0 965.01,432.05 965.01,965.01 0,160.63 -39.29,312.07 -108.73,445.3l497.87 381.88c92.06,107.61 20.65,304.64 -160.49,251.03l-513.37 -393.76 0.01 -0.06c-174.46,173.43 -414.86,280.62 -680.3,280.62 -532.96,0 -965.01,-432.05 -965.01,-965.01 0,-532.96 432.05,-965.01 965.01,-965.01z"/>
  <path class="fil0" d="M-164810.37 -7396.34c-50.98,124.17 -18.06,197.98 129.71,202.88l959.91 -736.33"/>
  <path class="fil1" d="M-164810.37 -7396.34c-50.98,124.17 -18.06,197.98 129.71,202.88l776.54 -595.67 776.54 595.67c147.77,-4.9 180.69,-78.71 129.71,-202.88l-906.25 -695.17 -906.25 695.17z"/>
  <polygon class="fil0" points="-163268.24,-8041.55 -163498.35,-8039.85 -163498.35,-7901.78 -163268.24,-7721.1 "/>
  <path class="fil2" d="M-164846.33 -6246.31c-4.51,-33.55 -7.3,-67.64 -8.27,-102.19l-622.85 52.26 631.12 49.93z"/>
  <polygon class="fil2" points="-162928.33,-6295.08 -162366.98,-6335.66 -162924.97,-6374.14 -163130.69,-6388.33 -163510.24,-6414.5 -163742.84,-7025.56 -163963.61,-6367.2 -164160.72,-6714.12 -164349.95,-6390.85 -164562.53,-6373.01 -164562.53,-6223.85 -164231.69,-6197.68 -164160.72,-6308.06 -163932.07,-5823.16 -163746.78,-6406.62 -163675.82,-6241.04 -163136.62,-6280.02 "/>
  <path class="fil1" d="M-162940.16 -6204.75l-210.95 4.66c-79.41,334.5 -380.08,583.32 -738.87,583.32 -419.4,0 -759.39,-339.99 -759.39,-759.39 0,-419.4 339.99,-759.39 759.39,-759.39 415.34,0 752.79,333.43 759.29,747.22l205.72 14.19c0,-0.67 0,-1.35 0,-2.02 0,-532.96 -432.05,-965.01 -965.01,-965.01 -4.72,0 -9.43,0.03 -14.14,0.1 -526.44,7.56 -950.87,436.67 -950.87,964.91 0,9.25 0.13,18.47 0.39,27.66 0.97,34.55 3.76,68.64 8.27,102.19 63.42,471.55 467.42,835.16 956.35,835.16 265.44,0 505.84,-107.19 680.29,-280.56l513.37 393.76c181.14,53.61 252.55,-143.42 160.49,-251.03l-497.87 -381.88c44.15,-84.71 76.11,-176.78 93.54,-273.89z"/>
  <polygon class="fil1" points="-163508.06,-8046.24 -163257.85,-8046.24 -163254.89,-7705.33 -163508.06,-7911.59 "/>
 </g>
</svg>
